<svg xmlns="http://www.w3.org/2000/svg" xmlns:xlink="http://www.w3.org/1999/xlink" id="Layer_1" data-name="Layer 1"
   viewBox="0 0 1494 221.3" width="1494" height="221.3">
   <defs>
      <linearGradient id="linear-gradient" x1="365.16" y1="685.56" x2="350.28" y2="864.15002"
         gradientUnits="userSpaceOnUse">
         <stop offset="0" stop-color="#1877f2" />
         <stop offset="1" />
      </linearGradient>
      <linearGradient id="linear-gradient-2" x1="397.07999" y1="689.15002" x2="382.20999" y2="867.60999"
         xlink:href="#linear-gradient" gradientTransform="translate(-253,-639.34999)" />
      <linearGradient id="linear-gradient-3" x1="324.82001" y1="682.15997" x2="309.94" y2="860.62"
         xlink:href="#linear-gradient" gradientTransform="translate(-253,-639.34999)" />
   </defs>
   <rect x="255.89999" y="87.960007" width="131.57001" height="37.32" />
   <rect x="255.89999" y="177.68004" width="168.89999" height="37.32" />
   <rect x="255.89999" y="5.9900322" width="168.89999" height="37.32" />
   <path
      d="m 472.57,110.50001 a 67.27,67.27 0 0 0 67.18,67.15 h 104.5 v 37.33 h -104.5 a 104.51,104.51 0 0 1 0,-209.0000047 h 104.5 V 43.310005 h -104.5 a 67.28,67.28 0 0 0 -67.18,67.190005 z" />
   <path
      d="M 883.11,6.2900053 V 215.29001 l -37.32,-28.64 L 711.43,83.030005 V 215.31001 H 674.1 V 6.8900053 L 711.43,35.550005 845.79,139.17001 V 5.9900053 Z" />
   <path
      d="M 1114.51,110.50001 A 104.51,104.51 0 1 1 1010,5.9900053 104.62,104.62 0 0 1 1114.51,110.50001 Z m -37.33,0 a 67.18,67.18 0 1 0 -67.18,67.15 67.28,67.28 0 0 0 67.18,-67.15 z" />
   <path
      d="M 1338.14,5.9900053 1319,43.320005 1231.52,215.01001 1144.03,43.320005 1125,5.9900053 h 41.8 l 19.11,37.3299999997 45.69,89.570005 45.68,-89.570005 19.11,-37.3299997 z" />
   <path
      d="m 1494,215.01001 h -41.8 l -19.11,-37.36 -45.69,-89.570005 -45.68,89.570005 -19.11,37.33 h -41.8 l 19.11,-37.33 87.48,-171.6900047 87.49,171.6900047 z" />
   <polygon
      points="331.76,757.75 391.89,698.59 464.71,698.59 464.71,659.65 380.46,659.65 325.91,712.27 253,712.27 253,645.97 323.17,645.97 323.17,659.65 266.68,659.65 266.68,698.59 320.25,698.59 374.79,645.97 478.39,645.97 478.39,712.27 397.56,712.27 345.44,763.42 345.44,846.97 384.73,846.97 384.73,765.63 398.41,765.63 398.41,860.65 331.76,860.65"
      style="fill:url(#linear-gradient)" transform="translate(-253,-639.34999)" />
   <circle cx="138.20001" cy="120.41002" r="12.52" style="fill:url(#linear-gradient-2)" />
   <circle cx="74.339996" cy="12.52" r="12.52" style="fill:url(#linear-gradient-3)" />
</svg>