<?xml version="1.0" encoding="UTF-8" standalone="no"?>
<svg
   id="Layer_1"
   data-name="Layer 1"
   viewBox="0 0 1354 191.47"
   version="1.1"
   sodipodi:docname="logo-simple.svg"
   width="1354"
   height="191.47"
   inkscape:version="1.2.2 (732a01da63, 2022-12-09)"
   xmlns:inkscape="http://www.inkscape.org/namespaces/inkscape"
   xmlns:sodipodi="http://sodipodi.sourceforge.net/DTD/sodipodi-0.dtd"
   xmlns="http://www.w3.org/2000/svg"
   xmlns:svg="http://www.w3.org/2000/svg"
   xmlns:rdf="http://www.w3.org/1999/02/22-rdf-syntax-ns#"
   xmlns:cc="http://creativecommons.org/ns#"
   xmlns:dc="http://purl.org/dc/elements/1.1/">
  <defs
     id="defs493" />
  <sodipodi:namedview
     id="namedview491"
     pagecolor="#505050"
     bordercolor="#ffffff"
     borderopacity="1"
     inkscape:showpageshadow="0"
     inkscape:pageopacity="0"
     inkscape:pagecheckerboard="1"
     inkscape:deskcolor="#505050"
     showgrid="false"
     inkscape:zoom="0.562"
     inkscape:cx="676.15658"
     inkscape:cy="96.975089"
     inkscape:window-width="1920"
     inkscape:window-height="1001"
     inkscape:window-x="-9"
     inkscape:window-y="1347"
     inkscape:window-maximized="1"
     inkscape:current-layer="Layer_1" />
  <title
     id="title470">Artboard 2</title>
  <path
     d="m 190.9,0.28 v 34.14 h -78.38 v 157 H 78.38 v -157 H 0 V 0.28 Z"
     id="path472" />
  <rect
     x="221.56"
     y="74.980003"
     width="120.34"
     height="34.139999"
     id="rect474" />
  <rect
     x="221.56"
     y="157.03999"
     width="154.48"
     height="34.139999"
     id="rect476" />
  <rect
     x="221.56"
     y="1.953125e-05"
     width="154.48"
     height="34.139999"
     id="rect478" />
  <path
     d="m 419.73,95.59 a 61.54,61.54 0 0 0 61.45,61.45 h 95.59 v 34.14 H 481.18 A 95.59,95.59 0 1 1 481.18,0 h 95.59 v 34.14 h -95.59 a 61.54,61.54 0 0 0 -61.45,61.45 z"
     id="path480" />
  <path
     d="M 795.24,0.28 V 191.46 L 761.11,165.24 638.21,70.47 v 121 H 604.07 V 0.82 l 34.14,26.22 122.9,94.77 V 0 Z"
     id="path482" />
  <path
     d="M 1006.89,95.59 A 95.59,95.59 0 1 1 911.3,0 a 95.7,95.7 0 0 1 95.59,95.59 z m -34.14,0 a 61.45,61.45 0 1 0 -61.45,61.45 61.54,61.54 0 0 0 61.45,-61.45 z"
     id="path484" />
  <path
     d="m 1211.44,0 -17.44,34.14 -80,157 -80,-157 L 1016.52,0 h 38.24 l 17.48,34.14 41.78,81.94 41.79,-81.94 L 1173.29,0 Z"
     id="path486" />
  <path
     d="m 1354,191.18 h -38.24 l -17.47,-34.14 -41.79,-81.93 -41.79,81.93 -17.47,34.14 H 1159 l 17.48,-34.14 80,-157 80,157 z"
     id="path488" />
  <metadata
     id="metadata495">
    <rdf:RDF>
      <cc:Work
         rdf:about="">
        <dc:title>Artboard 2</dc:title>
      </cc:Work>
    </rdf:RDF>
  </metadata>
</svg>
