<svg xmlns="http://www.w3.org/2000/svg" viewBox="0 0 1354 191.47" width="1354" height="191.47">
   <path d="m 190.9,0.28 v 34.14 h -78.38 v 157 H 78.38 v -157 H 0 V 0.28 Z" style="fill:#ffffff" />
   <rect x="221.56" y="74.980003" width="120.34" height="34.139999" style="fill:#ffffff" />
   <rect x="221.56" y="157.03999" width="154.48" height="34.139999" style="fill:#ffffff" />
   <rect x="221.56" y="1.953125e-05" width="154.48" height="34.139999" style="fill:#ffffff" />
   <path
      d="m 419.73,95.59 a 61.54,61.54 0 0 0 61.45,61.45 h 95.59 v 34.14 H 481.18 A 95.59,95.59 0 1 1 481.18,0 h 95.59 v 34.14 h -95.59 a 61.54,61.54 0 0 0 -61.45,61.45 z"
      style="fill:#ffffff" />
   <path d="M 795.24,0.28 V 191.46 L 761.11,165.24 638.21,70.47 v 121 H 604.07 V 0.82 l 34.14,26.22 122.9,94.77 V 0 Z"
      style="fill:#ffffff" />
   <path
      d="M 1006.89,95.59 A 95.59,95.59 0 1 1 911.3,0 a 95.7,95.7 0 0 1 95.59,95.59 z m -34.14,0 a 61.45,61.45 0 1 0 -61.45,61.45 61.54,61.54 0 0 0 61.45,-61.45 z"
      style="fill:#ffffff" />
   <path
      d="m 1211.44,0 -17.44,34.14 -80,157 -80,-157 L 1016.52,0 h 38.24 l 17.48,34.14 41.78,81.94 41.79,-81.94 L 1173.29,0 Z"
      style="fill:#ffffff" />
   <path
      d="m 1354,191.18 h -38.24 l -17.47,-34.14 -41.79,-81.93 -41.79,81.93 -17.47,34.14 H 1159 l 17.48,-34.14 80,-157 80,157 z"
      style="fill:#ffffff" />
</svg>