<svg id="Layer_1" data-name="Layer 1" xmlns="http://www.w3.org/2000/svg" xmlns:xlink="http://www.w3.org/1999/xlink" viewBox="0 0 2000 1500"><defs><style>.cls-1{fill:url(#linear-gradient);}.cls-2{fill:url(#linear-gradient-2);}.cls-3{fill:url(#linear-gradient-3);}</style><linearGradient id="linear-gradient" x1="365.16" y1="685.56" x2="350.28" y2="864.15" gradientUnits="userSpaceOnUse"><stop offset="0" stop-color="#1877f2"/><stop offset="1"/></linearGradient><linearGradient id="linear-gradient-2" x1="397.08" y1="689.15" x2="382.21" y2="867.61" xlink:href="#linear-gradient"/><linearGradient id="linear-gradient-3" x1="324.82" y1="682.16" x2="309.94" y2="860.62" xlink:href="#linear-gradient"/></defs><title>Artboard 3</title><rect x="508.9" y="727.31" width="131.57" height="37.32"/><rect x="508.9" y="817.03" width="168.9" height="37.32"/><rect x="508.9" y="645.34" width="168.9" height="37.32"/><path d="M725.57,749.85A67.27,67.27,0,0,0,792.75,817h104.5v37.33H792.75a104.51,104.51,0,0,1,0-209h104.5v37.33H792.75A67.28,67.28,0,0,0,725.57,749.85Z"/><path d="M1136.11,645.64v209L1098.79,826,964.43,722.38V854.66H927.1V646.24l37.33,28.66,134.36,103.62V645.34Z"/><path d="M1367.51,749.85A104.51,104.51,0,1,1,1263,645.34,104.62,104.62,0,0,1,1367.51,749.85Zm-37.33,0A67.18,67.18,0,1,0,1263,817,67.28,67.28,0,0,0,1330.18,749.85Z"/><path d="M1591.14,645.34,1572,682.67l-87.48,171.69-87.49-171.69L1378,645.34h41.8l19.11,37.33,45.69,89.57,45.68-89.57,19.11-37.33Z"/><path d="M1747,854.36h-41.8L1686.09,817l-45.69-89.57L1594.72,817l-19.11,37.33h-41.8L1552.92,817l87.48-171.69L1727.89,817Z"/><polygon class="cls-1" points="398.41 860.65 331.76 860.65 331.76 757.75 391.89 698.59 464.71 698.59 464.71 659.65 380.46 659.65 325.91 712.27 253 712.27 253 645.97 323.17 645.97 323.17 659.65 266.68 659.65 266.68 698.59 320.25 698.59 374.79 645.97 478.39 645.97 478.39 712.27 397.56 712.27 345.44 763.42 345.44 846.97 384.73 846.97 384.73 765.63 398.41 765.63 398.41 860.65"/><circle class="cls-2" cx="391.2" cy="759.76" r="12.52"/><circle class="cls-3" cx="327.34" cy="651.87" r="12.52"/></svg>