<?xml version="1.0" encoding="UTF-8" standalone="no"?>
<svg
   id="Layer_1"
   data-name="Layer 1"
   viewBox="0 0 673.22998 583.66998"
   version="1.1"
   sodipodi:docname="main-logo-text.svg"
   width="673.22998"
   height="583.66998"
   inkscape:version="1.2.2 (732a01da63, 2022-12-09)"
   xmlns:inkscape="http://www.inkscape.org/namespaces/inkscape"
   xmlns:sodipodi="http://sodipodi.sourceforge.net/DTD/sodipodi-0.dtd"
   xmlns:xlink="http://www.w3.org/1999/xlink"
   xmlns="http://www.w3.org/2000/svg"
   xmlns:svg="http://www.w3.org/2000/svg"
   xmlns:rdf="http://www.w3.org/1999/02/22-rdf-syntax-ns#"
   xmlns:cc="http://creativecommons.org/ns#"
   xmlns:dc="http://purl.org/dc/elements/1.1/">
  <sodipodi:namedview
     id="namedview415"
     pagecolor="#505050"
     bordercolor="#ffffff"
     borderopacity="1"
     inkscape:showpageshadow="0"
     inkscape:pageopacity="0"
     inkscape:pagecheckerboard="1"
     inkscape:deskcolor="#505050"
     showgrid="false"
     inkscape:zoom="1.124"
     inkscape:cx="271.35231"
     inkscape:cy="319.39502"
     inkscape:window-width="1920"
     inkscape:window-height="1001"
     inkscape:window-x="-9"
     inkscape:window-y="1347"
     inkscape:window-maximized="1"
     inkscape:current-layer="Layer_1" />
  <defs
     id="defs386">
    <style
       id="style377">.cls-1{fill:url(#linear-gradient);}.cls-2{fill:url(#linear-gradient-2);}.cls-3{fill:url(#linear-gradient-3);}</style>
    <linearGradient
       id="linear-gradient"
       x1="998.89001"
       y1="554.04999"
       x2="968.01001"
       y2="924.59998"
       gradientUnits="userSpaceOnUse">
      <stop
         offset="0"
         stop-color="#1877f2"
         id="stop379" />
      <stop
         offset="1"
         id="stop381" />
    </linearGradient>
    <linearGradient
       id="linear-gradient-2"
       x1="1065.12"
       y1="561.5"
       x2="1034.26"
       y2="931.78998"
       xlink:href="#linear-gradient"
       gradientTransform="translate(-663.34,-458.17999)" />
    <linearGradient
       id="linear-gradient-3"
       x1="915.17999"
       y1="547"
       x2="884.32001"
       y2="917.28998"
       xlink:href="#linear-gradient"
       gradientTransform="translate(-663.34,-458.17999)" />
    <linearGradient
       inkscape:collect="always"
       xlink:href="#linear-gradient"
       id="linearGradient419"
       gradientUnits="userSpaceOnUse"
       x1="998.89001"
       y1="554.04999"
       x2="968.01001"
       y2="924.59998" />
  </defs>
  <title
     id="title388">Artboard 1</title>
  <path
     d="m 95,488.60001 v 17 H 56 v 78.07 H 39 v -78.1 H 0 v -17 z"
     id="path390"
     style="fill:#1877f2;fill-opacity:1" />
  <rect
     x="110.24002"
     y="525.72998"
     width="59.830002"
     height="16.969999"
     id="rect392"
     style="fill:#1877f2;fill-opacity:1" />
  <rect
     x="110.24002"
     y="566.52997"
     width="76.800003"
     height="16.969999"
     id="rect394"
     style="fill:#1877f2;fill-opacity:1" />
  <rect
     x="110.24002"
     y="488.46002"
     width="76.800003"
     height="16.969999"
     id="rect396"
     style="fill:#1877f2;fill-opacity:1" />
  <path
     d="m 208.76,535.98001 a 30.59,30.59 0 0 0 30.55,30.55 h 47.52 v 17 h -47.52 a 47.53,47.53 0 1 1 0,-95.05 h 47.52 v 17 h -47.52 a 30.6,30.6 0 0 0 -30.55,30.5 z"
     id="path398"
     style="fill:#1877f2;fill-opacity:1" />
  <path
     d="m 395.45,488.60001 v 95 l -17,-13 -61.1,-47.12 v 60.15 h -17 v -94.76 l 17,13 61.1,47.12 v -60.53 z"
     id="path400"
     style="fill:#1877f2;fill-opacity:1" />
  <path
     d="m 500.66,535.98001 a 47.53,47.53 0 1 1 -47.53,-47.52 47.58,47.58 0 0 1 47.53,47.52 z m -17,0 a 30.55,30.55 0 1 0 -30.55,30.55 30.6,30.6 0 0 0 30.55,-30.55 z"
     id="path402"
     style="fill:#1877f2;fill-opacity:1" />
  <path
     d="m 602.36,488.46001 -8.69,17 -39.78,78.08 -39.79,-78.08 -8.68,-17 h 19 l 8.69,17 20.78,40.74 20.77,-40.77 8.69,-17 z"
     id="path404"
     style="fill:#1877f2;fill-opacity:1" />
  <path
     d="m 673.23,583.51001 h -19 l -8.69,-17 -20.78,-40.69 -20.77,40.73 -8.69,17 h -19 l 8.69,-17 39.78,-78.07 39.78,78.07 z"
     id="path406"
     style="fill:#1877f2;fill-opacity:1" />
  <polygon
     class="cls-1"
     points="929.6,703.85 1054.36,581.08 1205.44,581.08 1205.44,500.29 1030.63,500.29 917.46,609.47 766.17,609.47 766.17,471.9 911.76,471.9 911.76,500.29 794.56,500.29 794.56,581.08 905.7,581.08 1018.87,471.9 1233.83,471.9 1233.83,609.47 1066.12,609.47 957.98,715.6 957.98,888.96 1039.5,888.96 1039.5,720.18 1067.88,720.18 1067.88,917.34 929.6,917.34 "
     id="polygon408"
     style="fill:url(#linearGradient419)"
     transform="translate(-663.34,-458.17999)" />
  <circle
     class="cls-2"
     cx="389.57004"
     cy="249.84003"
     r="25.969999"
     id="circle410"
     style="fill:url(#linear-gradient-2)" />
  <circle
     class="cls-3"
     cx="257.07999"
     cy="25.969999"
     r="25.969999"
     id="circle412"
     style="fill:url(#linear-gradient-3)" />
  <metadata
     id="metadata417">
    <rdf:RDF>
      <cc:Work
         rdf:about="">
        <dc:title>Artboard 1</dc:title>
      </cc:Work>
    </rdf:RDF>
  </metadata>
</svg>
