<svg width="169" height="87" viewBox="0 0 169 87" fill="none" xmlns="http://www.w3.org/2000/svg">
<path d="M107.804 23.21L109.104 16.105C109.449 14.2207 110.528 12.5506 112.105 11.462C113.681 10.3735 115.625 9.95577 117.51 10.3007L124.615 11.6013M102.601 51.6297L101.301 58.7346C100.956 60.6189 101.373 62.5631 102.462 64.1395C103.551 65.7158 105.221 66.7952 107.105 67.1401L114.21 68.4407M153.034 16.8036L160.139 18.1042C162.024 18.4492 163.694 19.5285 164.782 21.1049C165.871 22.6812 166.289 24.6254 165.944 26.5097L164.643 33.6147M142.63 73.643L149.735 74.9436C151.619 75.2886 153.563 74.8708 155.139 73.7823C156.716 72.6938 157.795 71.0236 158.14 69.1393L159.441 62.0344M124.265 33.5664L124.301 33.5729M145.58 37.4681L145.616 37.4746M122.79 51.6538C123.731 53.0473 124.941 54.2389 126.349 55.1589C127.757 56.0788 129.334 56.7087 130.988 57.0115C132.642 57.3143 134.34 57.2839 135.983 56.9223C137.625 56.5606 139.178 55.8749 140.552 54.9053" stroke="white" stroke-width="5.03152" stroke-linecap="round" stroke-linejoin="round"/>
<path d="M42.7899 35.972C43.4175 35.8175 44.0807 35.9185 44.6337 36.253C45.1867 36.5874 45.5842 37.1278 45.7387 37.7554L46.6431 41.4275C48.0347 47.0804 48.5371 52.9157 48.1321 58.7232L46.6586 79.8655C46.5986 80.498 46.294 81.0821 45.8097 81.4933C45.3253 81.9045 44.6995 82.1102 44.0657 82.0667C43.4318 82.0232 42.8401 81.7338 42.4165 81.2602C41.9929 80.7867 41.771 80.1665 41.7981 79.5317L43.2658 58.3859C43.6355 53.0833 43.1768 47.7555 41.9062 42.5941L41.0019 38.922C40.8473 38.2945 40.9484 37.6312 41.2828 37.0782C41.6173 36.5252 42.1577 36.1277 42.7852 35.9732L42.7899 35.972Z" fill="white"/>
<path d="M33.9083 40.6691C33.6022 39.4263 33.5439 38.1353 33.7367 36.8699C33.9295 35.6045 34.3697 34.3895 35.0321 33.2942C35.6945 32.1989 36.5662 31.2448 37.5973 30.4864C38.6284 29.728 39.7988 29.1801 41.0417 28.874C42.2846 28.5679 43.5755 28.5096 44.8409 28.7024C46.1063 28.8952 47.3214 29.3354 48.4166 29.9978C49.5119 30.6602 50.466 31.5319 51.2244 32.563C51.9829 33.5941 52.5308 34.7645 52.8368 36.0074C52.9914 36.6349 52.8903 37.2981 52.5559 37.8511C52.2214 38.4041 51.681 38.8016 51.0535 38.9562C50.426 39.1107 49.7628 39.0097 49.2098 38.6752C48.6567 38.3408 48.2593 37.8003 48.1047 37.1728C47.7956 35.9178 47.0006 34.8369 45.8946 34.168C44.7886 33.4992 43.4622 33.297 42.2071 33.6061C40.9521 33.9152 39.8712 34.7102 39.2023 35.8162C38.5335 36.9222 38.3313 38.2486 38.6404 39.5037L39.0273 41.0748C39.504 43.0102 39.8742 44.9618 40.138 46.9296C40.2066 47.5608 40.0262 48.1938 39.6351 48.694C39.244 49.1941 38.6731 49.5218 38.044 49.6074C37.415 49.693 36.7773 49.5297 36.2668 49.1523C35.7563 48.7748 35.4133 48.213 35.3107 47.5865C35.0688 45.789 34.7299 44.0053 34.2952 42.2402L33.9083 40.6691ZM51.6788 41.3118C51.9915 41.2432 52.3147 41.2369 52.6298 41.2933C52.9449 41.3497 53.2459 41.4676 53.5154 41.6404C53.785 41.8131 54.0178 42.0373 54.2007 42.3C54.3836 42.5628 54.5129 42.859 54.5812 43.1718C55.7648 48.5815 56.1401 54.1368 55.6948 59.6565L54.1326 79.1141C54.0803 79.7586 53.7742 80.356 53.2815 80.7747C52.7888 81.1935 52.1499 81.3994 51.5054 81.3472C50.8609 81.2949 50.2636 80.9888 49.8448 80.4961C49.426 80.0034 49.2201 79.3645 49.2724 78.72L50.8393 59.2613C51.2442 54.2227 50.9003 49.1519 49.8188 44.2142C49.7502 43.9015 49.744 43.5783 49.8003 43.2632C49.8567 42.948 49.9747 42.6471 50.1474 42.3776C50.3201 42.108 50.5443 41.8752 50.807 41.6923C51.0698 41.5094 51.366 41.3801 51.6788 41.3118ZM38.2626 55.2314C38.5824 55.25 38.8954 55.3315 39.1837 55.4711C39.4719 55.6107 39.7299 55.8059 39.9427 56.0453C40.1555 56.2847 40.319 56.5637 40.4238 56.8664C40.5287 57.169 40.5729 57.4894 40.5538 57.8092L39.2803 79.1933C39.2673 79.5169 39.1899 79.8347 39.0527 80.1281C38.9154 80.4214 38.7211 80.6845 38.481 80.9019C38.2409 81.1193 37.9599 81.2866 37.6544 81.3941C37.3488 81.5016 37.0249 81.5471 36.7016 81.528C36.3783 81.5089 36.062 81.4255 35.7713 81.2827C35.4806 81.1399 35.2213 80.9407 35.0085 80.6965C34.7957 80.4523 34.6337 80.1682 34.532 79.8606C34.4303 79.5531 34.3909 79.2284 34.4161 78.9055L35.6885 57.5167C35.7275 56.8726 36.0204 56.2702 36.503 55.8418C36.9856 55.4134 37.6184 55.1939 38.2626 55.2314Z" fill="white"/>
<path d="M26.3917 36.6628C26.7926 32.6623 28.5934 28.9318 31.4764 26.1294C34.3595 23.327 38.1395 21.6327 42.1498 21.3454C46.1602 21.0582 50.1431 22.1963 53.3962 24.5592C56.6492 26.922 58.9633 30.3577 59.9304 34.2603C60.0849 34.8878 59.9839 35.551 59.6494 36.104C59.315 36.657 58.7745 37.0545 58.147 37.2091C57.5195 37.3636 56.8563 37.2626 56.3033 36.9281C55.7503 36.5937 55.3528 36.0532 55.1982 35.4257C54.5105 32.6353 52.8586 30.1778 50.5343 28.4875C48.21 26.7972 45.363 25.9829 42.4964 26.1886C39.6299 26.3942 36.9283 27.6066 34.8691 29.6114C32.8099 31.6162 31.5257 34.2843 31.2434 37.1444C31.1795 37.7877 30.8627 38.3794 30.3626 38.7892C29.8626 39.1989 29.2202 39.3933 28.5768 39.3294C27.9334 39.2656 27.3418 38.9488 26.932 38.4487C26.5222 37.9486 26.3279 37.3062 26.3917 36.6628ZM29.7577 44.2159C30.397 44.1232 31.047 44.2881 31.5648 44.6745C32.0825 45.0609 32.4256 45.6371 32.5187 46.2764C33.0015 49.6122 33.1603 52.987 32.9929 56.3535L31.9558 77.047C31.9238 77.6925 31.6366 78.2988 31.1575 78.7326C30.6784 79.1664 30.0466 79.3921 29.4011 79.3601C28.7556 79.328 28.1492 79.0409 27.7154 78.5618C27.2816 78.0827 27.0559 77.4508 27.088 76.8053L28.125 56.1119C28.2772 53.0586 28.1336 49.9978 27.696 46.9722C27.6033 46.3329 27.7683 45.6829 28.1546 45.1651C28.541 44.6474 29.1184 44.309 29.7577 44.2159ZM58.9046 40.285C59.5321 40.1304 60.1953 40.2315 60.7483 40.5659C61.3013 40.9004 61.6988 41.4408 61.8533 42.0683C63.3451 48.1255 63.8196 54.393 63.247 60.6072L61.7543 76.7601C61.6692 77.382 61.3473 77.9471 60.8559 78.3376C60.3644 78.7281 59.7412 78.9139 59.1161 78.8562C58.4911 78.7986 57.9124 78.5019 57.5007 78.0281C57.0889 77.5543 56.8759 76.9399 56.906 76.3129L58.394 60.1611C58.9139 54.4869 58.4883 48.7645 57.1259 43.2326C56.9714 42.6051 57.0725 41.9419 57.4069 41.3889C57.7413 40.8358 58.2818 40.4383 58.9093 40.2838L58.9046 40.285Z" fill="white"/>
<path d="M20.4585 30.0382C22.1168 25.4495 25.1155 21.4648 29.0658 18.6008C33.016 15.7369 37.7356 14.1259 42.6125 13.9766C42.9326 13.9663 43.2516 14.0192 43.5513 14.1322C43.851 14.2452 44.1255 14.4161 44.3591 14.6352C44.5927 14.8542 44.7809 15.1172 44.9129 15.409C45.0449 15.7008 45.1182 16.0158 45.1285 16.3359C45.1388 16.656 45.0859 16.975 44.9729 17.2747C44.8599 17.5743 44.689 17.8488 44.4699 18.0824C44.2508 18.3161 43.9879 18.5043 43.6961 18.6363C43.4043 18.7683 43.0893 18.8415 42.7692 18.8518C38.8663 18.9692 35.0889 20.2572 31.9272 22.5484C28.7655 24.8397 26.3655 28.0285 25.0389 31.7008C24.8105 32.2975 24.3568 32.7806 23.7757 33.0461C23.1945 33.3116 22.5323 33.3382 21.9317 33.1202C21.3312 32.9022 20.8402 32.457 20.5647 31.8806C20.2891 31.3041 20.251 30.6425 20.4585 30.0382ZM51.1455 17.6873C51.4384 17.1115 51.948 16.6755 52.5622 16.4753C53.1765 16.2751 53.8451 16.327 54.4211 16.6196C57.5426 18.205 60.2851 20.4457 62.4609 23.1886C64.6368 25.9315 66.1947 29.1118 67.0283 32.5122L68.7765 39.6104C68.931 40.238 68.8299 40.9012 68.4955 41.4542C68.1611 42.0072 67.6206 42.4047 66.9931 42.5592C66.3656 42.7138 65.7024 42.6127 65.1494 42.2783C64.5964 41.9438 64.1989 41.4034 64.0443 40.7759L62.2962 33.6777C61.6296 30.957 60.3832 28.4124 58.6421 26.2181C56.901 24.0238 54.7064 22.2316 52.2085 20.964C51.6332 20.6703 51.198 20.1601 50.9987 19.5457C50.7994 18.9313 50.8522 18.2628 51.1455 17.6873ZM21.296 37.963C21.6148 37.9324 21.9365 37.9649 22.2428 38.0588C22.549 38.1526 22.8337 38.3059 23.0807 38.5098C23.3277 38.7138 23.532 38.9644 23.682 39.2474C23.832 39.5304 23.9247 39.8402 23.9549 40.1591C24.0414 41.1014 24.2012 42.0559 24.4343 43.0023C25.2617 46.3621 25.6125 49.8243 25.4715 53.2871L24.6489 73.1799C24.6431 73.5047 24.5725 73.8251 24.4411 74.1222C24.3098 74.4193 24.1203 74.6871 23.8839 74.9099C23.6475 75.1328 23.369 75.3061 23.0646 75.4197C22.7603 75.5333 22.4363 75.5849 22.1117 75.5714C21.7872 75.558 21.4686 75.4798 21.1746 75.3415C20.8807 75.2031 20.6175 75.0074 20.4003 74.7658C20.1831 74.5242 20.0164 74.2416 19.9101 73.9347C19.8037 73.6277 19.7598 73.3026 19.7809 72.9785L20.6035 53.0857C20.7252 50.0854 20.4218 47.083 19.7021 44.1678C19.4108 42.9847 19.214 41.7985 19.0999 40.622C19.0693 40.3031 19.1018 39.9814 19.1956 39.6752C19.2895 39.3689 19.4427 39.0842 19.6467 38.8372C19.8507 38.5903 20.1013 38.3859 20.3843 38.2359C20.6673 38.0859 20.9771 37.9932 21.296 37.963ZM67.5924 44.9313C68.2303 44.8304 68.8822 44.9869 69.4048 45.3664C69.9275 45.7459 70.278 46.3173 70.3795 46.9552C71.1475 51.7852 71.2839 56.7005 70.7704 61.5852L69.6598 72.2383C69.5833 72.873 69.2604 73.4522 68.7608 73.8511C68.2613 74.2499 67.6249 74.4365 66.9891 74.3705C66.3532 74.3046 65.7687 73.9914 65.3617 73.4985C64.9546 73.0056 64.7575 72.3724 64.8129 71.7356L65.9259 61.0718C66.3902 56.6241 66.27 52.1349 65.5684 47.7185C65.4675 47.0805 65.624 46.4286 66.0035 45.906C66.383 45.3834 66.9545 45.0328 67.5924 44.9313Z" fill="white"/>
<path d="M21.4317 15.4839C25.4431 11.6324 30.3976 8.90471 35.7973 7.57506C41.197 6.2454 46.8516 6.36061 52.1926 7.90911C57.5337 9.45762 62.373 12.3848 66.2241 16.3965C70.0752 20.4082 72.8024 25.363 74.1315 30.7629C74.2861 31.3904 74.185 32.0536 73.8506 32.6066C73.5161 33.1596 72.9757 33.5571 72.3482 33.7116C71.7207 33.8662 71.0574 33.7651 70.5044 33.4307C69.9514 33.0962 69.5539 32.5558 69.3994 31.9283C68.2756 27.3585 65.9685 23.1651 62.7101 19.7698C59.4516 16.3744 55.3567 13.8967 50.837 12.5858C46.3174 11.275 41.5322 11.1771 36.9627 12.302C32.3932 13.427 28.2004 15.7352 24.8059 18.9945C24.3348 19.4105 23.7212 19.6285 23.0932 19.6028C22.4653 19.5771 21.8715 19.3098 21.436 18.8566C21.0005 18.4035 20.7569 17.7996 20.7561 17.1711C20.7553 16.5426 20.9973 15.9381 21.4317 15.4839ZM18.6851 22.4694C18.9678 22.6193 19.2183 22.8233 19.4222 23.07C19.6261 23.3166 19.7794 23.601 19.8734 23.9069C19.9674 24.2128 20.0002 24.5343 19.97 24.8529C19.9397 25.1714 19.847 25.4809 19.6972 25.7637C16.5953 31.5841 15.7577 38.3468 17.3458 44.7481C17.5004 45.3756 17.3993 46.0388 17.0648 46.5918C16.7304 47.1448 16.19 47.5423 15.5625 47.6969C14.9349 47.8514 14.2717 47.7504 13.7187 47.4159C13.1657 47.0815 12.7682 46.541 12.6137 45.9135C10.6744 38.0392 11.8652 30.1168 15.3955 23.4803C15.5454 23.1976 15.7494 22.9471 15.9961 22.7432C16.2427 22.5393 16.5271 22.386 16.833 22.292C17.139 22.198 17.4604 22.1652 17.779 22.1955C18.0975 22.2257 18.4023 22.3196 18.6851 22.4694ZM15.4823 50.3266C16.1275 50.3479 16.7379 50.6243 17.1795 51.0952C17.6211 51.5662 17.8578 52.1931 17.8375 52.8383L17.376 66.84C17.3788 67.1684 17.3152 67.4939 17.1891 67.7971C17.0629 68.1002 16.8768 68.3747 16.6419 68.6042C16.407 68.8336 16.1282 69.0132 15.8221 69.1321C15.5161 69.2511 15.1891 69.307 14.861 69.2964C14.5328 69.2859 14.2101 69.2091 13.9123 69.0707C13.6146 68.9323 13.3479 68.7352 13.1282 68.4912C12.9085 68.2471 12.7404 67.9612 12.634 67.6506C12.5276 67.3399 12.4851 67.011 12.509 66.6835L12.9658 52.683C12.9762 52.363 13.0496 52.0482 13.1817 51.7565C13.3138 51.4649 13.5021 51.2021 13.7358 50.9833C13.9695 50.7645 14.244 50.5938 14.5437 50.4811C14.8434 50.3685 15.1623 50.3159 15.4823 50.3266ZM73.5384 38.4427C73.8507 38.3723 74.1737 38.3641 74.4892 38.4187C74.8046 38.4732 75.1061 38.5893 75.3767 38.7604C75.6472 38.9314 75.8814 39.1541 76.0658 39.4158C76.2502 39.6774 76.3813 39.9727 76.4516 40.285C78.0566 47.4135 79.2151 54.7874 78.2942 62.5831L78.1809 63.5496C78.0899 64.1781 77.7571 64.7463 77.2534 65.1331C76.7497 65.5199 76.1148 65.6947 75.4841 65.6204C74.8534 65.5461 74.2766 65.2284 73.8766 64.7352C73.4766 64.2419 73.285 63.6119 73.3425 62.9795L73.4559 62.013C74.277 55.0349 73.2627 48.308 71.6961 41.3558C71.6257 41.0436 71.6176 40.7205 71.6721 40.4051C71.7266 40.0897 71.8427 39.7881 72.0138 39.5176C72.1849 39.2471 72.4076 39.0129 72.6692 38.8285C72.9308 38.644 73.2262 38.5129 73.5384 38.4427Z" fill="white"/>
</svg>
